<svg width="50" height="50" viewBox="0 0 24 24" fill="none" xmlns="http://www.w3.org/2000/svg">
<path d="M8.38347 6.00345C8.84535 4.73955 9.0763 4.1076 9.27768 3.798C10.5594 1.82739 13.4447 1.82739 14.7265 3.798C14.9279 4.1076 15.1588 4.73955 15.6207 6.00346L15.6679 6.13263C15.7079 6.24218 15.7279 6.29696 15.7488 6.34585C16.0482 7.04718 16.7204 7.51721 17.4819 7.55772C17.535 7.56054 17.5934 7.56054 17.71 7.56054H18.208C18.5418 7.56054 18.7087 7.56054 18.7908 7.56469C21.8178 7.71786 23.006 11.5651 20.5925 13.3985C20.527 13.4482 20.3892 13.5423 20.1136 13.7305C20.065 13.7637 20.0408 13.7803 20.0194 13.7956C19.3093 14.3084 19.0154 15.2237 19.2944 16.054C19.3027 16.0789 19.3139 16.1094 19.3362 16.1704C19.5763 16.8276 19.6964 17.1562 19.7379 17.3223C20.4135 20.023 17.6024 22.2676 15.1182 21.011C14.9654 20.9338 14.6884 20.7548 14.1344 20.3969L13.2912 19.8523C13.0949 19.7254 12.9967 19.662 12.9003 19.6136C12.3352 19.3295 11.669 19.3295 11.1039 19.6136C11.0075 19.662 10.9093 19.7254 10.7129 19.8523L9.88678 20.3859C9.31904 20.7527 9.03516 20.9361 8.87839 21.0148C6.39802 22.2613 3.59756 20.0252 4.26416 17.3305C4.30629 17.1602 4.42894 16.8246 4.67422 16.1533C4.6977 16.0891 4.70944 16.057 4.71833 16.0304C4.99182 15.2115 4.70895 14.3095 4.01678 13.7934C3.9943 13.7767 3.96872 13.7587 3.91757 13.7227C3.62932 13.5202 3.48519 13.4189 3.41597 13.3644C1.0606 11.5105 2.25698 7.72767 5.25002 7.56531C5.33798 7.56054 5.51414 7.56054 5.86647 7.56054H6.29738C6.41093 7.56054 6.46771 7.56054 6.51939 7.55787C7.28298 7.51832 7.9572 7.04688 8.25644 6.34326C8.27669 6.29564 8.29618 6.24231 8.33515 6.13566L8.38347 6.00345Z" fill="#ec8951"></path>
</svg>