<svg width="50" height="50" viewBox="0 0 24 24" fill="none" xmlns="http://www.w3.org/2000/svg">
<path fill-rule="evenodd" clip-rule="evenodd" d="M19.9035 9.32973C18.0856 7.35234 15.2417 5 12.0004 5C8.75904 5 5.91521 7.35234 4.09726 9.32973C3.29027 10.2075 2.88678 10.6464 2.75059 11.5556C2.71725 11.7782 2.71725 12.2218 2.75059 12.4444C2.88678 13.3536 3.29027 13.7925 4.09726 14.6703C5.91521 16.6477 8.75904 19 12.0004 19C15.2417 19 18.0856 16.6477 19.9035 14.6703C20.7105 13.7925 21.114 13.3536 21.2502 12.4444C21.2835 12.2218 21.2835 11.7782 21.2502 11.5556C21.114 10.6464 20.7105 10.2075 19.9035 9.32973ZM12.0004 15C13.6572 15 15.0004 13.6569 15.0004 12C15.0004 10.3431 13.6572 9 12.0004 9C10.3435 9 9.00039 10.3431 9.00039 12C9.00039 13.6569 10.3435 15 12.0004 15Z" fill="#ec8951" fill-opacity="0.18"></path>
<path d="M12 5C15.2414 5 18.0852 7.35234 19.9031 9.32973C20.7101 10.2075 21.1136 10.6464 21.2498 11.5556C21.2831 11.7782 21.2831 12.2218 21.2498 12.4444C21.1136 13.3536 20.7101 13.7925 19.9031 14.6703C18.0852 16.6477 15.2414 19 12 19C8.75865 19 5.91481 16.6477 4.09687 14.6703C3.28988 13.7925 2.88639 13.3536 2.7502 12.4444C2.71686 12.2218 2.71686 11.7782 2.7502 11.5556C2.88639 10.6464 3.28988 10.2075 4.09687 9.32973C5.91482 7.35234 8.75865 5 12 5Z" stroke="#ec8951" stroke-width="1.5" stroke-linejoin="round"></path>
<path d="M15 12C15 13.6569 13.6569 15 12 15C10.3431 15 9 13.6569 9 12C9 10.3431 10.3431 9 12 9C13.6569 9 15 10.3431 15 12Z" stroke="#ec8951" stroke-width="1.5" stroke-linejoin="round"></path>
</svg>